<svg width="190" height="34" viewBox="0 0 190 34" fill="none" xmlns="http://www.w3.org/2000/svg">
<path d="M50.1 7.625V9.95H45.475V25H42.625V9.95H37.975V7.625H50.1ZM52.0363 18.05C52.0363 16.6667 52.3197 15.4417 52.8863 14.375C53.4697 13.3083 54.253 12.4833 55.2363 11.9C56.2363 11.3 57.3363 11 58.5363 11C59.6197 11 60.5613 11.2167 61.3613 11.65C62.178 12.0667 62.828 12.5917 63.3113 13.225V11.225H66.1863V25H63.3113V22.95C62.828 23.6 62.1697 24.1417 61.3363 24.575C60.503 25.0083 59.553 25.225 58.4863 25.225C57.303 25.225 56.2197 24.925 55.2363 24.325C54.253 23.7083 53.4697 22.8583 52.8863 21.775C52.3197 20.675 52.0363 19.4333 52.0363 18.05ZM63.3113 18.1C63.3113 17.15 63.1113 16.325 62.7113 15.625C62.328 14.925 61.8197 14.3917 61.1863 14.025C60.553 13.6583 59.8697 13.475 59.1363 13.475C58.403 13.475 57.7197 13.6583 57.0863 14.025C56.453 14.375 55.9363 14.9 55.5363 15.6C55.153 16.2833 54.9613 17.1 54.9613 18.05C54.9613 19 55.153 19.8333 55.5363 20.55C55.9363 21.2667 56.453 21.8167 57.0863 22.2C57.7363 22.5667 58.4197 22.75 59.1363 22.75C59.8697 22.75 60.553 22.5667 61.1863 22.2C61.8197 21.8333 62.328 21.3 62.7113 20.6C63.1113 19.8833 63.3113 19.05 63.3113 18.1ZM74.9297 25.225C73.8464 25.225 72.8714 25.0333 72.0047 24.65C71.1547 24.25 70.4797 23.7167 69.9797 23.05C69.4797 22.3667 69.213 21.6083 69.1797 20.775H72.1297C72.1797 21.3583 72.4547 21.85 72.9547 22.25C73.4714 22.6333 74.113 22.825 74.8797 22.825C75.6797 22.825 76.2964 22.675 76.7297 22.375C77.1797 22.0583 77.4047 21.6583 77.4047 21.175C77.4047 20.6583 77.1547 20.275 76.6547 20.025C76.1714 19.775 75.3964 19.5 74.3297 19.2C73.2964 18.9167 72.4547 18.6417 71.8047 18.375C71.1547 18.1083 70.588 17.7 70.1047 17.15C69.638 16.6 69.4047 15.875 69.4047 14.975C69.4047 14.2417 69.6214 13.575 70.0547 12.975C70.488 12.3583 71.1047 11.875 71.9047 11.525C72.7214 11.175 73.6547 11 74.7047 11C76.2714 11 77.5297 11.4 78.4797 12.2C79.4464 12.9833 79.963 14.0583 80.0297 15.425H77.1797C77.1297 14.8083 76.8797 14.3167 76.4297 13.95C75.9797 13.5833 75.3714 13.4 74.6047 13.4C73.8547 13.4 73.2797 13.5417 72.8797 13.825C72.4797 14.1083 72.2797 14.4833 72.2797 14.95C72.2797 15.3167 72.413 15.625 72.6797 15.875C72.9464 16.125 73.2714 16.325 73.6547 16.475C74.038 16.6083 74.6047 16.7833 75.3547 17C76.3547 17.2667 77.1714 17.5417 77.8047 17.825C78.4547 18.0917 79.013 18.4917 79.4797 19.025C79.9464 19.5583 80.188 20.2667 80.2047 21.15C80.2047 21.9333 79.988 22.6333 79.5547 23.25C79.1214 23.8667 78.5047 24.35 77.7047 24.7C76.9214 25.05 75.9964 25.225 74.9297 25.225ZM88.7342 18.125L95.0842 25H91.2342L86.1342 19.075V25H83.2842V6.5H86.1342V17.25L91.1342 11.225H95.0842L88.7342 18.125ZM115.427 7.625V25H112.577V13.1L107.277 25H105.302L99.977 13.1V25H97.127V7.625H100.202L106.302 21.25L112.377 7.625H115.427ZM120.623 9.4C120.106 9.4 119.673 9.225 119.323 8.875C118.973 8.525 118.798 8.09167 118.798 7.575C118.798 7.05833 118.973 6.625 119.323 6.275C119.673 5.925 120.106 5.75 120.623 5.75C121.123 5.75 121.548 5.925 121.898 6.275C122.248 6.625 122.423 7.05833 122.423 7.575C122.423 8.09167 122.248 8.525 121.898 8.875C121.548 9.225 121.123 9.4 120.623 9.4ZM122.023 11.225V25H119.173V11.225H122.023ZM132.715 11C133.798 11 134.765 11.225 135.615 11.675C136.481 12.125 137.156 12.7917 137.64 13.675C138.123 14.5583 138.365 15.625 138.365 16.875V25H135.54V17.3C135.54 16.0667 135.231 15.125 134.615 14.475C133.998 13.8083 133.156 13.475 132.09 13.475C131.023 13.475 130.173 13.8083 129.54 14.475C128.923 15.125 128.615 16.0667 128.615 17.3V25H125.765V11.225H128.615V12.8C129.081 12.2333 129.673 11.7917 130.39 11.475C131.123 11.1583 131.898 11 132.715 11ZM141.05 18.05C141.05 16.6667 141.333 15.4417 141.9 14.375C142.483 13.3083 143.267 12.4833 144.25 11.9C145.25 11.3 146.358 11 147.575 11C148.475 11 149.358 11.2 150.225 11.6C151.108 11.9833 151.808 12.5 152.325 13.15V6.5H155.2V25H152.325V22.925C151.858 23.5917 151.208 24.1417 150.375 24.575C149.558 25.0083 148.617 25.225 147.55 25.225C146.35 25.225 145.25 24.925 144.25 24.325C143.267 23.7083 142.483 22.8583 141.9 21.775C141.333 20.675 141.05 19.4333 141.05 18.05ZM152.325 18.1C152.325 17.15 152.125 16.325 151.725 15.625C151.342 14.925 150.833 14.3917 150.2 14.025C149.567 13.6583 148.883 13.475 148.15 13.475C147.417 13.475 146.733 13.6583 146.1 14.025C145.467 14.375 144.95 14.9 144.55 15.6C144.167 16.2833 143.975 17.1 143.975 18.05C143.975 19 144.167 19.8333 144.55 20.55C144.95 21.2667 145.467 21.8167 146.1 22.2C146.75 22.5667 147.433 22.75 148.15 22.75C148.883 22.75 149.567 22.5667 150.2 22.2C150.833 21.8333 151.342 21.3 151.725 20.6C152.125 19.8833 152.325 19.05 152.325 18.1ZM171.568 17.775C171.568 18.2917 171.535 18.7583 171.468 19.175H160.943C161.027 20.275 161.435 21.1583 162.168 21.825C162.902 22.4917 163.802 22.825 164.868 22.825C166.402 22.825 167.485 22.1833 168.118 20.9H171.193C170.777 22.1667 170.018 23.2083 168.918 24.025C167.835 24.825 166.485 25.225 164.868 25.225C163.552 25.225 162.368 24.9333 161.318 24.35C160.285 23.75 159.468 22.9167 158.868 21.85C158.285 20.7667 157.993 19.5167 157.993 18.1C157.993 16.6833 158.277 15.4417 158.843 14.375C159.427 13.2917 160.235 12.4583 161.268 11.875C162.318 11.2917 163.518 11 164.868 11C166.168 11 167.327 11.2833 168.343 11.85C169.36 12.4167 170.152 13.2167 170.718 14.25C171.285 15.2667 171.568 16.4417 171.568 17.775ZM168.593 16.875C168.577 15.825 168.202 14.9833 167.468 14.35C166.735 13.7167 165.827 13.4 164.743 13.4C163.76 13.4 162.918 13.7167 162.218 14.35C161.518 14.9667 161.102 15.8083 160.968 16.875H168.593ZM177.223 13.225C177.64 12.525 178.19 11.9833 178.873 11.6C179.573 11.2 180.398 11 181.348 11V13.95H180.623C179.506 13.95 178.656 14.2333 178.073 14.8C177.506 15.3667 177.223 16.35 177.223 17.75V25H174.373V11.225H177.223V13.225ZM185.118 25.175C184.601 25.175 184.168 25 183.818 24.65C183.468 24.3 183.293 23.8667 183.293 23.35C183.293 22.8333 183.468 22.4 183.818 22.05C184.168 21.7 184.601 21.525 185.118 21.525C185.618 21.525 186.043 21.7 186.393 22.05C186.743 22.4 186.918 22.8333 186.918 23.35C186.918 23.8667 186.743 24.3 186.393 24.65C186.043 25 185.618 25.175 185.118 25.175Z" fill="#3D3D3D"/>
<path fill-rule="evenodd" clip-rule="evenodd" d="M24.7488 16.1421L14.1422 5.53553L3.53555 16.1421L14.1422 26.7487L24.7488 16.1421ZM14.1422 2L1.54972e-05 16.1421L14.1422 30.2843L28.2843 16.1421L14.1422 2Z" fill="#2563DC"/>
</svg>
